<svg width="30" height="30" viewBox="0 0 30 30" fill="none" xmlns="http://www.w3.org/2000/svg">
<path d="M2.92969 11.4469C2.92969 8.52951 2.92969 7.07083 3.47938 5.94877C4.00569 4.87443 4.87443 4.00569 5.94877 3.47938C7.07083 2.92969 8.52951 2.92969 11.4469 2.92969H18.5531C21.4705 2.92969 22.9292 2.92969 24.0512 3.47938C25.1256 4.00569 25.9943 4.87443 26.5206 5.94877C27.0703 7.07083 27.0703 8.52951 27.0703 11.4469V18.5531C27.0703 21.4705 27.0703 22.9292 26.5206 24.0512C25.9943 25.1256 25.1256 25.9943 24.0512 26.5206C22.9292 27.0703 21.4705 27.0703 18.5531 27.0703H11.4469C8.52951 27.0703 7.07083 27.0703 5.94877 26.5206C4.87443 25.9943 4.00569 25.1256 3.47938 24.0512C2.92969 22.9292 2.92969 21.4705 2.92969 18.5531V11.4469Z" fill="#418DFF"/>
<path d="M2.92969 11.4469C2.92969 8.52951 2.92969 7.07083 3.47938 5.94877C4.00569 4.87443 4.87443 4.00569 5.94877 3.47938C7.07083 2.92969 8.52951 2.92969 11.4469 2.92969H18.5531C21.4705 2.92969 22.9292 2.92969 24.0512 3.47938C25.1256 4.00569 25.9943 4.87443 26.5206 5.94877C27.0703 7.07083 27.0703 8.52951 27.0703 11.4469V18.5531C27.0703 21.4705 27.0703 22.9292 26.5206 24.0512C25.9943 25.1256 25.1256 25.9943 24.0512 26.5206C22.9292 27.0703 21.4705 27.0703 18.5531 27.0703H11.4469C8.52951 27.0703 7.07083 27.0703 5.94877 26.5206C4.87443 25.9943 4.00569 25.1256 3.47938 24.0512C2.92969 22.9292 2.92969 21.4705 2.92969 18.5531V11.4469Z" fill="url(#paint0_linear_14_38)"/>
<path d="M14.9992 23.2031C19.2581 23.2031 22.7632 19.9213 23.2022 15.709H19.8812C19.4858 18.2949 17.4043 20.2671 14.8961 20.2671C12.39 20.2671 10.3101 18.2984 9.91204 15.7159H6.79688C7.23904 19.9249 10.7426 23.2031 14.9992 23.2031Z" fill="white" fill-opacity="0.85"/>
<path d="M14.9992 23.2031C19.2581 23.2031 22.7632 19.9213 23.2022 15.709H19.8812C19.4858 18.2949 17.4043 20.2671 14.8961 20.2671C12.39 20.2671 10.3101 18.2984 9.91204 15.7159H6.79688C7.23904 19.9249 10.7426 23.2031 14.9992 23.2031Z" fill="url(#paint1_radial_14_38)"/>
<path d="M23.2031 14.2456C22.7645 10.0329 19.2592 6.79688 15 6.79688C10.7408 6.79688 7.23555 10.0329 6.79688 14.2456H23.2031Z" fill="white" fill-opacity="0.85"/>
<path d="M23.2031 14.2456C22.7645 10.0329 19.2592 6.79688 15 6.79688C10.7408 6.79688 7.23555 10.0329 6.79688 14.2456H23.2031Z" fill="url(#paint2_radial_14_38)"/>
<defs>
<linearGradient id="paint0_linear_14_38" x1="15" y1="2.92969" x2="15" y2="27.0703" gradientUnits="userSpaceOnUse">
<stop offset="0.182292" stop-opacity="0"/>
<stop offset="1" stop-opacity="0.19"/>
</linearGradient>
<radialGradient id="paint1_radial_14_38" cx="0" cy="0" r="1" gradientUnits="userSpaceOnUse" gradientTransform="translate(12.2476 15.7196) rotate(72.626) scale(9.21731 20.1777)">
<stop stop-color="white"/>
<stop offset="1" stop-color="white" stop-opacity="0"/>
</radialGradient>
<radialGradient id="paint2_radial_14_38" cx="0" cy="0" r="1" gradientUnits="userSpaceOnUse" gradientTransform="translate(12.8413 9.42331) rotate(65.879) scale(5.28237 11.6347)">
<stop stop-color="white"/>
<stop offset="1" stop-color="white" stop-opacity="0"/>
</radialGradient>
</defs>
</svg>
